<?xml version="1.0" standalone="no"?>
<!DOCTYPE svg PUBLIC "-//W3C//DTD SVG 20010904//EN"
 "http://www.w3.org/TR/2001/REC-SVG-20010904/DTD/svg10.dtd">
<svg version="1.0" xmlns="http://www.w3.org/2000/svg"
 width="512.000000pt" height="512.000000pt" viewBox="0 0 512.000000 512.000000"
 preserveAspectRatio="xMidYMid meet">

<g transform="translate(0.000000,512.000000) scale(0.100000,-0.100000)"
fill="#000000" stroke="none">
<path d="M1515 5111 c-35 -15 -44 -34 -86 -187 -57 -207 -119 -375 -199 -539
-117 -239 -215 -381 -490 -705 -266 -314 -372 -469 -470 -688 -146 -327 -214
-640 -214 -992 -1 -233 11 -337 59 -525 82 -320 227 -571 452 -785 196 -187
454 -326 741 -401 121 -31 309 -59 399 -59 l55 0 63 -68 c39 -42 87 -81 123
-100 112 -60 134 -62 590 -62 l414 0 34 34 c44 44 45 83 5 128 l-29 33 -429 5
-428 5 -51 27 c-53 28 -101 76 -131 131 -17 30 -18 77 -18 632 l0 600 27 47
c16 25 47 62 69 82 83 71 -5 67 1400 64 l1264 -3 53 -30 c59 -32 91 -66 125
-129 22 -41 22 -45 25 -612 3 -565 2 -572 -19 -629 -28 -76 -88 -136 -163
-164 -54 -20 -73 -21 -451 -21 l-395 0 -32 -29 c-27 -24 -33 -36 -33 -71 0
-35 6 -47 33 -71 l32 -29 395 0 c249 0 414 4 447 11 185 39 338 192 377 377
15 73 15 1141 0 1214 -37 177 -179 327 -354 373 -50 13 -146 15 -598 15 l-538
0 8 78 c14 136 8 457 -11 582 -62 414 -202 728 -435 973 -112 117 -148 135
-210 103 -35 -19 -51 -55 -51 -119 0 -65 -23 -165 -51 -219 -32 -62 -102 -131
-166 -163 -49 -24 -71 -29 -138 -29 -67 -1 -88 3 -130 25 -104 54 -157 165
-157 328 1 105 16 184 64 331 41 124 50 307 23 440 -70 346 -312 665 -580 765
-70 27 -187 41 -220 26z m208 -239 c63 -34 164 -126 222 -205 66 -87 141 -246
166 -352 32 -135 24 -273 -23 -420 -108 -334 -75 -599 93 -767 256 -256 712
-130 844 233 l22 62 51 -72 c229 -326 333 -818 275 -1309 l-6 -52 -341 0 -342
0 -23 48 c-62 128 -201 274 -337 353 -43 25 -131 68 -194 94 -154 66 -216 103
-277 167 -99 106 -141 230 -150 452 -6 133 -7 141 -33 169 -21 24 -34 30 -68
30 -34 0 -55 -10 -123 -59 -402 -288 -645 -738 -666 -1234 -24 -596 293 -1074
772 -1166 50 -9 96 -18 103 -20 9 -3 12 -51 12 -200 l0 -197 -72 7 c-40 4
-117 16 -172 27 -638 128 -1061 558 -1178 1195 -31 172 -31 496 0 674 57 329
179 644 340 875 69 100 95 132 258 325 72 85 166 200 210 255 236 298 396 610
512 1000 41 140 34 136 125 87z m-177 -2071 c40 -139 126 -268 237 -355 70
-54 135 -89 285 -152 173 -72 293 -159 363 -261 l30 -43 -168 0 c-117 0 -186
-5 -226 -15 -164 -43 -293 -163 -346 -322 -19 -57 -21 -85 -21 -343 l0 -280
-23 0 c-45 0 -144 31 -227 72 -68 33 -102 58 -171 127 -95 95 -139 164 -192
297 -56 141 -71 234 -71 424 0 130 5 186 22 267 59 276 186 515 376 708 l89
90 14 -80 c7 -44 20 -104 29 -134z"/>
<path d="M2281 1474 l-31 -26 0 -418 0 -419 24 -28 c31 -36 95 -39 128 -5 21
20 23 35 28 150 l5 127 114 -142 c68 -84 126 -147 142 -154 59 -24 119 17 119
82 0 32 -13 51 -105 159 -58 67 -105 125 -105 128 0 4 30 32 66 62 88 73 104
95 104 140 0 49 -33 80 -84 80 -34 0 -47 -9 -147 -107 l-109 -106 0 222 0 223
-29 29 c-37 37 -79 38 -120 3z"/>
<path d="M4501 1486 c-50 -28 -50 -33 -51 -464 0 -258 4 -410 10 -423 12 -22
61 -49 89 -49 12 0 35 13 53 29 l33 29 0 416 0 416 -25 25 c-31 30 -77 40
-109 21z"/>
<path d="M3169 1207 c-68 -19 -136 -63 -170 -110 -53 -73 -62 -104 -63 -212
-1 -82 3 -108 20 -146 31 -67 87 -124 152 -156 50 -24 68 -28 147 -28 72 1 98
5 130 22 80 42 101 99 55 148 -27 29 -59 32 -120 10 -57 -20 -89 -19 -128 5
-56 34 -74 74 -70 157 3 64 7 76 33 103 43 45 89 56 158 36 73 -21 103 -20
127 4 28 28 27 90 -3 118 -52 49 -182 73 -268 49z"/>
<path d="M3845 1211 c-58 -15 -115 -52 -154 -101 -54 -68 -75 -136 -75 -236 0
-72 4 -90 32 -147 79 -160 262 -227 374 -136 l39 31 39 -36 c48 -43 68 -45
109 -10 l31 26 0 283 c0 309 1 304 -58 326 -32 12 -52 5 -87 -31 l-28 -30 -31
23 c-57 43 -119 55 -191 38z m166 -197 c47 -45 63 -140 35 -207 -44 -107 -175
-116 -226 -17 -22 43 -27 121 -9 167 12 33 46 72 74 84 35 15 95 3 126 -27z"/>
<path d="M3318 171 c-27 -24 -33 -36 -33 -71 0 -35 6 -47 33 -71 36 -32 69
-36 112 -14 35 18 50 43 50 85 0 42 -15 67 -50 85 -43 22 -76 18 -112 -14z"/>
</g>
</svg>
